<?xml version="1.0" encoding="UTF-8"?> <svg xmlns="http://www.w3.org/2000/svg" id="Layer_1" data-name="Layer 1" version="1.1" viewBox="0 0 791 283"><defs><style> .cls-1 { fill: #e5485d; } .cls-1, .cls-2 { stroke-width: 0px; } .cls-2 { fill: #fff; } </style></defs><path class="cls-2" d="M199.75,146.94l51.58-18.75v-30.35l-61.58,22.6L146,1.44h-32s-38.5,102.25-53.5,144S10.38,281.44,10.38,281.44h30.09l32.53-88.75,100-36.5,45.75,125.25h30.49l-49.49-134.5ZM85.5,158.19l44.13-120.22,33.87,92.22-78,28Z"></path><g><polygon class="cls-1" points="251.33 97.84 251.33 1.44 146 1.44 189.75 120.44 251.33 97.84"></polygon><polygon class="cls-1" points="249.24 281.44 251.33 281.44 251.33 128.19 199.75 146.94 249.24 281.44"></polygon><path class="cls-1" d="M114,1.44H1.5v280h8.88s35.12-94.25,50.12-136S114,1.44,114,1.44Z"></path><polygon class="cls-1" points="73 192.69 40.47 281.44 218.75 281.44 173 156.19 73 192.69"></polygon><polygon class="cls-1" points="85.5 158.19 163.5 130.19 129.63 37.97 85.5 158.19"></polygon></g><path class="cls-1" d="M517.72,159.41c0,7.36-5.96,13.32-13.32,13.32s-13.32-5.96-13.32-13.32,5.97-13.32,13.32-13.32,13.32,5.96,13.32,13.32Z"></path><g><rect class="cls-2" x="283.5" y="163.43" width="7.98" height="116.08"></rect><rect class="cls-2" x="500.52" y="189.45" width="9.02" height="90.06"></rect><path class="cls-2" d="M386.59,200.07c-2.05-2.5-4.62-4.88-7.84-7-14.62-9.62-33.75-4.62-39.5-1.37s-10.5,8.87-13.88,14.5v-16.75h-7.98v90.08h7.98v-53.08s2.5-29.25,26.25-31,32.19,10.37,34.97,29v55.08h7.98v-50.82h0v-5.25c0-4.39-.73-14.54-7.98-23.37Z"></path><path class="cls-2" d="M414.25,254.44h8.25s2.62,15.37,20.38,18.37,28-6.75,28.62-16.62-12.12-14.87-26.62-18.25-28.25-8.25-28.5-26.25,18.62-23.37,31.62-23.5,31.12,7.12,30.38,27.25h-7.88s-.77-19.87-23.25-19.87-25.62,17.75-19.38,25.25,24.12,11,35.62,14.62,19.79,14.12,14.9,27.87c-4.9,13.75-15.19,17-31.36,17s-32.79-8.25-32.79-25.87Z"></path><path class="cls-2" d="M611.49,157.44v53.03c-7.66-13.33-21.51-22.23-37.32-22.23-27.33,0-43.66,18.61-43.66,46.22,0,30.56,19.55,46.22,43.66,46.22,16.64,0,29.95-8.59,37.32-21.53v20.36h8.01v-122.08h-8.01ZM575.13,273.44c-19.88,0-36-17.45-36-38.97,0-24.28,16.12-38.97,36-38.97,20.88,0,36.36,17.45,36.36,38.97s-14.82,38.97-36.36,38.97Z"></path><path class="cls-2" d="M726.38,224.06c0-8.75-8.38-35.82-40.75-35.82s-45,23.44-45,44.57,9.62,47,42.88,47.87,42.12-23.25,41.88-31.12h-9s-1.88,18.87-23.12,22.75-37.38-5.37-42.88-26c-.81-3.02-1.28-5.99-1.48-8.87h77.48v-13.37ZM648.92,230.68c1.08-13.73,8.25-24.76,15.71-29.37,10.12-6.25,27.88-9,39.75,0s14,19.86,14.12,29.11l-69.58.26Z"></path><path class="cls-2" d="M756.51,204.01v-14.52h-9.09v90.02h9.09v-59.52s.74-9.65,9.28-17.46c8.54-7.81,23.7-6.16,23.7-6.16v-8.91c-27.01-.74-32.99,16.54-32.99,16.54Z"></path></g><g><path class="cls-2" d="M537.75,99.94c-17.95,0-32.5-16.74-32.5-37.39s14.55-37.39,32.5-37.39c11.55,0,21.69,6.06,27.45,16.44h27.62c-7.97-23.4-29.31-37.61-54.41-37.61-31.9,0-57.75,23.28-57.75,58.55s25.86,58.55,57.75,58.55c26.84,0,46.66-15.65,54.29-37.67h-27.58c-5.77,10.33-15.88,16.5-27.39,16.5Z"></path><path class="cls-2" d="M447.67,119.27h25L431.17,5.44h-26.83l-41.17,113.83h25l7.36-21h44.77l7.36,21ZM402.49,78.44l15.43-44,15.43,44h-30.86Z"></path><path class="cls-2" d="M323.83,5.44h-45.33v113.83h24v-42.83h23c11.33,0,36.67-8.67,36.67-33.33s-14.5-37.67-38.33-37.67ZM325.17,56.44h-22.67v-30.83h21.67c5.67,0,13.67,4.83,13.67,15s-6.5,15.83-12.67,15.83Z"></path></g></svg> 