<?xml version="1.0" encoding="UTF-8"?> <svg xmlns="http://www.w3.org/2000/svg" id="Layer_1" data-name="Layer 1" version="1.1" viewBox="0 0 153.36 153.36"><defs><style> .cls-1 { fill: #fff; stroke-width: 0px; } </style></defs><g><path class="cls-1" d="M15.19,90.1l-.29-1.31,6.89-1.51.3,1.37-5.48,1.2,1.82,1.26-1.41.31-1.83-1.32Z"></path><path class="cls-1" d="M14,83.46c-.05-.48,0-.93.18-1.34.17-.42.43-.76.78-1.03.35-.27.75-.43,1.21-.48.57-.06,1.17.08,1.78.44l3.19,1.86.17,1.59-2.57-1.56c.02.09.04.2.05.31.04.4,0,.78-.16,1.14-.15.36-.39.67-.72.93-.33.25-.73.41-1.18.45-.7.08-1.31-.11-1.83-.57-.52-.46-.82-1.05-.9-1.76ZM16.36,81.92c-.37.03-.66.17-.86.42-.2.25-.29.56-.24.94.04.37.19.66.44.87.25.21.56.3.92.27.37-.03.66-.18.87-.44.21-.26.3-.58.25-.96-.04-.37-.19-.65-.45-.85-.26-.2-.57-.29-.93-.25Z"></path><path class="cls-1" d="M13.69,75.03l1.29-.02.03,1.67,5.77-.1.02,1.45-5.77.1.03,1.68-1.29.02-.08-4.81Z"></path><path class="cls-1" d="M14.21,68.85l.15-1.46,7.02.73-.15,1.46-2.88-.3-.31,2.97,2.88.3-.15,1.46-7.02-.73.15-1.46,2.87.3.31-2.97-2.87-.3Z"></path><path class="cls-1" d="M23.58,59.37l-1.54.08-.84,2.84,1.25.9-.42,1.44-6.03-4.49.51-1.72,7.5-.49-.42,1.44ZM20.14,61.53l.6-2.02-3.17.16,2.57,1.86Z"></path><path class="cls-1" d="M19.86,49.88l.6-1.33,6.43,2.9-.7,1.54-5.88.77,4.6,2.08-.6,1.33-6.43-2.9.69-1.53,5.86-.8-4.57-2.06Z"></path><path class="cls-1" d="M24.28,42.2l.78-1.23,5.95,3.79-.91,1.43-5.93-.07,4.26,2.71-.78,1.23-5.95-3.79.9-1.41,5.92.04-4.23-2.69Z"></path><path class="cls-1" d="M33.74,41.56c-.25.3-.52.55-.82.73-.29.19-.6.31-.91.37-.32.06-.65.04-1-.07-.35-.1-.68-.3-1.02-.57l-3.51-2.95.94-1.12,3.36,2.82c.39.33.75.48,1.08.45.33-.03.63-.19.88-.49s.36-.62.33-.95c-.03-.34-.24-.67-.62-.99l-3.36-2.82.94-1.12,3.51,2.95c.33.28.58.58.74.9.16.32.24.65.24.97,0,.33-.07.65-.21.97-.13.32-.33.63-.58.94Z"></path><path class="cls-1" d="M39.81,35.19l-1.37-.71-2.16,2.02.62,1.41-1.09,1.02-2.92-6.93,1.31-1.22,6.72,3.38-1.09,1.02ZM35.75,35.31l1.54-1.44-2.81-1.47,1.27,2.91Z"></path><path class="cls-1" d="M42.01,31.77l1.76-1.34.78,1.03-2.93,2.22-4.26-5.62,1.17-.89,3.48,4.59Z"></path><path class="cls-1" d="M51.94,27.1l-1.14-1.04-2.61,1.4.24,1.52-1.32.71-1.05-7.44,1.58-.85,5.63,4.98-1.32.71ZM47.99,26.19l1.85-1-2.34-2.14.49,3.14Z"></path><path class="cls-1" d="M56.38,25.29c-.37.14-.72.23-1.07.25-.35.02-.67-.01-.98-.11-.31-.1-.59-.28-.84-.54-.25-.26-.46-.59-.62-.99l-1.67-4.27,1.36-.53,1.59,4.08c.18.47.43.78.74.91.31.14.64.13,1.01,0,.36-.14.61-.37.75-.68.14-.31.11-.7-.07-1.17l-1.59-4.08,1.36-.53,1.67,4.27c.16.4.23.79.22,1.15-.01.36-.1.68-.26.97-.16.28-.38.53-.65.75-.27.22-.59.4-.96.54Z"></path><path class="cls-1" d="M62.62,23.27c-.75.2-1.43.19-2.03-.03-.6-.21-1.04-.62-1.3-1.22l1.38-.72c.14.36.37.61.68.74.31.13.65.15,1.04.05.31-.08.54-.22.69-.41.16-.19.2-.42.12-.7-.05-.19-.17-.34-.37-.44-.2-.1-.39-.16-.56-.18-.18-.02-.45-.04-.83-.05-.05,0-.09,0-.11,0-.19,0-.35-.02-.47-.03-.12,0-.27-.03-.45-.05-.18-.02-.33-.06-.45-.09-.12-.04-.25-.09-.39-.16-.14-.07-.26-.15-.36-.24-.09-.09-.18-.21-.27-.35-.08-.14-.15-.3-.19-.47-.11-.41-.1-.8.04-1.16.13-.36.36-.66.68-.91.32-.25.71-.43,1.17-.55.31-.08.62-.13.92-.13.3,0,.59.02.88.1.28.07.55.2.78.4.24.19.43.44.58.73l-1.28.7c-.29-.62-.79-.84-1.48-.66-.31.08-.54.21-.71.4-.16.18-.21.41-.14.68.07.25.28.41.65.48.17.04.52.06,1.03.08.2,0,.36.02.49.02s.29.02.48.05c.19.03.36.06.48.1.13.04.27.09.43.17.16.07.29.16.39.26.1.1.2.22.3.37.09.15.16.32.21.51.07.28.1.55.06.81-.03.25-.11.48-.22.68-.12.2-.27.38-.46.55-.19.17-.4.31-.63.42-.23.11-.49.21-.76.28Z"></path><path class="cls-1" d="M69.22,14.72l.2,1.27-1.65.26.9,5.7-1.43.23-.9-5.7-1.66.26-.2-1.27,4.75-.75Z"></path><path class="cls-1" d="M74.97,21.39l-2-3-.42.02.17,3.1-1.46.08-.38-7.04,2.55-.14c.39-.02.73.01,1.03.11.3.09.55.23.73.41.19.18.33.4.44.64.1.25.16.52.18.82.03.47-.08.86-.32,1.18-.24.31-.6.54-1.07.67l2.29,3.06-1.73.09ZM72.4,15.68l.09,1.68.86-.05c.73-.04,1.08-.34,1.05-.9-.01-.26-.11-.46-.3-.6-.19-.14-.47-.2-.84-.18l-.86.05Z"></path><path class="cls-1" d="M82.35,21.63l-.42-1.49-2.96-.19-.61,1.42-1.5-.1,3.05-6.87,1.79.12,2.13,7.21-1.5-.1ZM79.48,18.76l2.1.14-.85-3.06-1.25,2.92Z"></path><path class="cls-1" d="M86.35,20.91l2.18.37-.22,1.28-3.62-.62,1.19-6.95,1.44.25-.97,5.68Z"></path><path class="cls-1" d="M89.29,22.81l1.67-6.85,1.42.35-1.67,6.85-1.42-.35Z"></path><path class="cls-1" d="M96.79,25.06v-1.54s-2.82-.96-2.82-.96l-.96,1.21-1.42-.49,4.75-5.83,1.7.58.17,7.52-1.42-.49ZM94.78,21.54l1.99.68-.02-3.17-1.97,2.49Z"></path><path class="cls-1" d="M106.43,21.72l1.31.65-3.15,6.32-1.52-.76-.55-5.91-2.25,4.52-1.31-.65,3.15-6.32,1.5.75.58,5.89,2.24-4.49Z"></path><path class="cls-1" d="M109.32,31.69l2.95-6.67,1.19.95-2.25,5.04,4.56-3.2.97.77-2.1,5.16,4.41-3.31,1.19.95-5.84,4.37-1.47-1.17,1.65-4.26-3.78,2.56-1.47-1.17Z"></path><path class="cls-1" d="M123.34,36.63l-1.8-1.9-1.16,1.1,1.6,1.68-.92.88-1.6-1.68-1.16,1.1,1.8,1.9-.94.89-2.82-2.96,5.11-4.86,2.82,2.96-.93.89Z"></path><path class="cls-1" d="M125.3,42.33c.35.85.16,1.56-.57,2.12-.48.37-.98.52-1.49.44-.51-.08-.98-.41-1.43-.98l-1.78-2.3,5.58-4.31,1.4,1.81c.46.59.68,1.15.65,1.68-.03.52-.28.97-.76,1.34-.25.19-.51.31-.79.35-.28.04-.55,0-.82-.14ZM122.64,42.93c.22.29.45.45.69.49.24.03.46-.03.66-.19.21-.16.33-.36.36-.6.03-.24-.07-.52-.3-.82l-.73-.94-1.42,1.1.75.97ZM126.06,39.86l-.54-.7-1.31,1.01.58.75c.18.24.38.37.6.39.21.02.42-.04.62-.2.19-.15.3-.33.32-.55.02-.22-.07-.45-.26-.7Z"></path><path class="cls-1" d="M127.36,52.86l1.04-1.14-1.4-2.61-1.52.24-.71-1.32,7.44-1.05.85,1.58-4.99,5.63-.71-1.32ZM128.28,48.91l1,1.85,2.14-2.34-3.14.49Z"></path><path class="cls-1" d="M128.69,55.61l6.03-4.1.51,1.44-4.57,3.08,5.56-.3.41,1.16-4.51,3.26,5.5-.48.51,1.43-7.27.62-.63-1.78,3.65-2.75-4.56.18-.63-1.78Z"></path><path class="cls-1" d="M132.37,68.99l1.34-.77-.53-2.92-1.52-.24-.27-1.47,7.41,1.29.32,1.76-6.48,3.82-.27-1.47ZM134.46,65.51l.38,2.07,2.76-1.57-3.13-.5Z"></path><path class="cls-1" d="M132.87,75.04l3-2.01-.02-.42-3.1.17-.08-1.46,7.04-.4.14,2.55c.02.39-.01.73-.11,1.03-.09.3-.23.55-.41.73-.18.19-.4.33-.64.44-.25.1-.52.16-.82.18-.47.03-.86-.08-1.18-.32-.32-.24-.54-.6-.67-1.07l-3.05,2.3-.1-1.73ZM138.58,72.45l-1.68.1.05.86c.04.73.34,1.08.9,1.05.26-.01.46-.12.6-.3.14-.19.2-.47.18-.84l-.05-.86Z"></path><path class="cls-1" d="M132.94,77.61l7.04.47-.17,2.55c-.04.55-.15,1.04-.35,1.45-.2.42-.46.75-.79,1-.33.25-.71.44-1.15.55-.44.11-.92.15-1.45.12-.53-.04-1.01-.14-1.43-.31-.42-.17-.78-.4-1.07-.7-.29-.3-.51-.66-.65-1.1-.14-.44-.19-.93-.16-1.49l.17-2.55ZM134.14,79.15l-.07,1.01c-.04.64.12,1.12.48,1.46s.9.53,1.63.58c.72.05,1.29-.07,1.69-.36.4-.29.62-.75.67-1.38l.07-1.01-4.46-.3Z"></path><path class="cls-1" d="M131.82,86.91c.15-.76.44-1.37.9-1.82.45-.45,1.01-.67,1.66-.65l.06,1.55c-.39-.02-.71.07-.96.29-.25.22-.41.52-.49.91-.06.31-.04.58.07.8.11.22.3.36.58.41.2.04.38-.01.56-.15.18-.14.31-.28.41-.43.09-.15.23-.39.41-.73.03-.04.04-.08.05-.1.09-.17.17-.31.23-.41.06-.1.14-.23.24-.38.1-.15.19-.27.28-.37.08-.09.19-.19.31-.29.12-.1.25-.17.37-.22s.27-.08.43-.09c.16-.02.33,0,.51.03.42.08.76.26,1.03.53.27.27.44.61.53,1.01.08.4.08.83,0,1.29-.06.32-.15.61-.27.89-.12.27-.28.52-.46.75-.19.23-.42.4-.69.54-.27.13-.58.2-.91.21l-.08-1.46c.69,0,1.1-.35,1.23-1.06.06-.31.04-.58-.05-.81-.1-.23-.28-.37-.55-.42-.25-.05-.49.08-.71.39-.11.14-.28.44-.51.9-.09.18-.17.32-.23.43-.06.11-.15.25-.25.41-.11.16-.21.3-.3.4-.09.1-.2.2-.33.31-.13.11-.27.19-.4.24-.14.05-.29.09-.47.11-.17.02-.36.01-.55-.02-.29-.05-.54-.15-.75-.29-.22-.14-.39-.3-.52-.49s-.23-.41-.3-.65c-.07-.24-.1-.49-.11-.75,0-.26.02-.53.08-.81Z"></path></g><path class="cls-1" d="M76.68,152.17C34.95,152.17,1.01,118.3,1.01,76.68S34.95,1.19,76.68,1.19s75.67,33.86,75.67,75.48-33.95,75.49-75.67,75.49ZM76.68,2.21C35.52,2.21,2.03,35.62,2.03,76.68s33.49,74.47,74.65,74.47,74.66-33.41,74.66-74.47S117.84,2.21,76.68,2.21Z"></path><g><path class="cls-1" d="M34.49,122.27l2.73,2.36-.98,1.14-4.52-3.9.83-.96,4.8-.4c.69-.05,1.19-.26,1.51-.63.22-.25.31-.52.29-.79-.03-.28-.18-.53-.46-.77-.61-.52-1.21-.44-1.8.25l-.41.48-1.16-1.23.28-.32c.57-.67,1.21-1.01,1.92-1.04.7-.03,1.39.25,2.06.83.63.55,1.01,1.16,1.12,1.83.11.67-.08,1.29-.57,1.87-.28.32-.6.55-.96.7-.37.15-.82.25-1.38.3l-3.28.29Z"></path><path class="cls-1" d="M40.47,128.85c-.83-.54-1.26-1.26-1.31-2.16-.04-.9.33-1.95,1.12-3.16.79-1.21,1.6-1.98,2.44-2.3.84-.32,1.67-.21,2.5.33.83.54,1.26,1.26,1.31,2.16.04.9-.33,1.95-1.12,3.16-.79,1.21-1.6,1.97-2.45,2.29-.84.32-1.68.21-2.5-.32ZM41.31,127.57c.37.24.78.23,1.23-.03.45-.26.94-.79,1.47-1.59.53-.8.81-1.47.86-1.99.05-.52-.11-.9-.47-1.14-.77-.5-1.67.03-2.71,1.61-1.03,1.58-1.16,2.62-.39,3.12Z"></path><path class="cls-1" d="M47.7,131.11l3.25,1.56-.65,1.36-5.38-2.59.55-1.15,4.53-1.64c.65-.23,1.08-.56,1.29-1,.14-.3.17-.58.07-.84-.1-.26-.31-.47-.64-.63-.72-.35-1.28-.11-1.67.71l-.27.56-1.44-.88.18-.38c.38-.79.91-1.29,1.58-1.5.67-.21,1.41-.12,2.2.26.75.36,1.27.85,1.56,1.47.29.62.26,1.27-.06,1.95-.18.38-.43.69-.74.93-.31.24-.73.46-1.25.65l-3.09,1.14Z"></path><path class="cls-1" d="M59.23,133.86l-.48,1.43-.97-.32-.51,1.52-1.6-.53.51-1.52-3.7-1.23.48-1.43,4.54-4.13,2.45.82-1.69,5.08.97.32ZM54.45,132.27l2.21.74,1.37-4.12-3.58,3.38Z"></path><path class="cls-1" d="M78.93,132.34l-3.22-.05-.03,1.92,2.78.04-.02,1.53-2.78-.04-.05,3.47-1.77-.03.13-8.47,4.99.07-.02,1.55Z"></path><path class="cls-1" d="M80.61,139.13l-.56-8.45,1.75-.12.56,8.45-1.75.12Z"></path><path class="cls-1" d="M89.73,129.41l1.72-.32,1.53,8.33-2,.37-4.78-5.28,1.09,5.95-1.72.32-1.53-8.33,1.98-.36,4.8,5.24-1.09-5.92Z"></path><path class="cls-1" d="M101.49,134.66l-1.16-1.44-3.36,1.18v1.85s-1.7.6-1.7.6l.13-9.02,2.03-.71,5.75,6.95-1.7.6ZM96.98,132.84l2.38-.84-2.38-2.97v3.81Z"></path><path class="cls-1" d="M106.06,130.87l2.37-1.19.7,1.39-3.94,1.98-3.81-7.56,1.57-.79,3.11,6.18Z"></path><path class="cls-1" d="M110.85,130.02l-4.45-7.2,1.5-.92,4.45,7.2-1.5.92Z"></path><path class="cls-1" d="M117,125.96c-.74.57-1.49.87-2.26.92-.77.05-1.44-.2-2.01-.74l1.19-1.44c.33.33.7.5,1.1.51.4,0,.79-.14,1.17-.43.3-.23.49-.49.58-.77.08-.28.02-.56-.19-.83-.14-.19-.35-.29-.62-.32-.27-.02-.5,0-.71.06-.2.06-.52.17-.95.33-.06.02-.1.04-.13.05-.22.08-.4.14-.53.19-.14.05-.31.1-.52.15-.21.06-.39.09-.54.11-.15.01-.32.02-.51,0-.19,0-.36-.04-.51-.1-.15-.06-.3-.15-.46-.26-.16-.12-.3-.26-.43-.43-.31-.41-.48-.84-.5-1.3-.02-.46.09-.9.33-1.32.24-.42.58-.81,1.04-1.16.31-.24.62-.43.95-.58.33-.15.66-.25,1.01-.3.35-.05.7-.03,1.05.07.35.1.68.28.98.54l-1.09,1.37c-.61-.55-1.26-.56-1.95-.03-.3.23-.5.49-.6.77-.1.28-.04.55.16.82.19.24.5.32.94.22.21-.04.6-.18,1.18-.4.23-.08.41-.15.55-.2.14-.05.33-.11.56-.17.23-.06.42-.1.58-.12.16-.02.34-.02.55-.01s.39.04.56.1c.16.06.33.15.5.28.17.12.33.27.47.46.21.28.36.57.45.86s.11.58.07.85c-.04.28-.12.55-.25.82-.13.27-.3.52-.5.76-.2.23-.44.45-.71.66Z"></path><path class="cls-1" d="M118.8,112.75l1.09,1.1-1.43,1.42,4.87,4.91-1.24,1.23-4.87-4.91-1.44,1.42-1.09-1.1,4.1-4.07Z"></path><path class="cls-1" d="M67.71,134.59c0,.89-.72,1.61-1.61,1.61s-1.61-.72-1.61-1.61.72-1.61,1.61-1.61,1.61.72,1.61,1.61Z"></path></g><polygon class="cls-1" points="46.85 89.06 42.35 89.06 53.91 64.18 59.53 64.18 66.7 82.64 74.74 64.18 78.82 64.18 86.66 82.64 94.07 64.18 99.57 64.18 111.08 89.22 106.7 89.22 104.74 85.01 92.45 85.01 94.41 81.01 102.95 81.01 96.99 67.6 88.45 89.22 85.08 89.22 76.71 69.89 68.33 89.22 64.87 89.22 56.41 67.64 50.53 80.97 59.08 80.97 60.91 84.97 48.66 84.97 46.85 89.06"></polygon></svg> 