<?xml version="1.0" encoding="UTF-8"?> <svg xmlns="http://www.w3.org/2000/svg" width="180" height="80" viewBox="0 0 180 80" fill="none"><g clip-path="url(#clip0_55_149)"><path d="M0.2 71.0897C0.97 70.8397 1.96 70.7197 3.15 70.7197C3.89 70.7197 4.42 70.9697 4.73 71.4797C4.89 71.7597 4.98 72.1097 4.98 72.5397V76.9097H4.18L3.92 76.1997C3.50822 76.4381 3.07248 76.6325 2.62 76.7797C2.23 76.9097 1.89 76.9797 1.59 76.9797C1.12 76.9797 0.73 76.8397 0.44 76.5497C0.14 76.2697 0 75.8997 0 75.4397V74.7697C0 74.3097 0.14 73.9297 0.42 73.6397C0.7 73.3597 1.09 73.2197 1.59 73.2197H3.92C3.92986 72.9631 3.93319 72.7064 3.93 72.4497C3.93 72.3797 3.91 72.2997 3.88 72.1997C3.86111 72.1065 3.8237 72.0181 3.77 71.9397C3.72082 71.8715 3.65555 71.8165 3.58 71.7797C3.40798 71.6894 3.21339 71.6512 3.02 71.6697C2.4 71.6697 1.45 71.7097 0.19 71.7997V71.0897H0.2ZM1.05 75.3297C1.05 75.7897 1.27 76.0197 1.7 76.0197C1.96 76.0197 2.27 75.9697 2.64 75.8797C3.01 75.7797 3.31 75.6797 3.56 75.5897L3.92 75.4597V73.9697L1.68 74.1297C1.26 74.1697 1.05 74.3997 1.05 74.8297V75.3297ZM6.05 75.0097V70.8297H7.11V75.0297C7.11 75.3697 7.19 75.6297 7.36 75.7897C7.52 75.9597 7.78 76.0397 8.11 76.0397C8.44 76.0397 8.75 75.9997 9.01 75.9097C9.27 75.8197 9.62 75.6597 10.07 75.4297V70.8297H11.12V76.9097H10.33L10.07 76.2197L9.8 76.3797C9.61951 76.4968 9.42872 76.5972 9.23 76.6797C9.04323 76.7895 8.84095 76.8704 8.63 76.9197C8.43 76.9797 8.18 77.0197 7.91 77.0197C7.31 77.0197 6.84 76.8197 6.53 76.4397C6.20345 76.0323 6.03322 75.5216 6.05 74.9997V75.0097ZM13.8 70.7797C14.8071 70.7763 15.8131 70.8465 16.81 70.9897V71.7497H13.89C13.6 71.7497 13.42 71.7997 13.34 71.8897C13.27 71.9797 13.23 72.1297 13.23 72.3497V72.7997C13.23 73.0797 13.29 73.2497 13.43 73.2997C13.53 73.3597 13.69 73.3897 13.89 73.3897H15.59C15.93 73.3897 16.22 73.4497 16.46 73.5897C16.9 73.8397 17.12 74.2797 17.12 74.8897V75.4697C17.12 76.4697 16.62 76.9697 15.63 76.9697C14.559 76.956 13.4901 76.8725 12.43 76.7197V75.9797H15.49C15.88 75.9797 16.07 75.7997 16.07 75.4397V74.9497C16.07 74.6997 15.99 74.5297 15.85 74.4497C15.737 74.3988 15.6138 74.3748 15.49 74.3797H13.79C13.23 74.3797 12.82 74.2797 12.56 74.0397C12.31 73.8197 12.18 73.4197 12.18 72.8497V72.3197C12.18 71.8197 12.3 71.4497 12.54 71.1797C12.79 70.9097 13.2 70.7797 13.79 70.7797H13.8ZM19.67 69.1297V70.8297H21.33V71.7697H19.67V74.6697C19.6436 74.9905 19.6951 75.313 19.82 75.6097C19.92 75.7797 20.08 75.8997 20.29 75.9497C20.87 76.1097 21.19 76.1897 21.24 76.1897V76.8897H20.13C19.13 76.8897 18.62 76.1797 18.62 74.7397V71.7697H17.53V71.0697L18.62 70.8197L18.84 69.1297H19.67ZM24.06 71.1597C24.22 71.0697 24.42 70.9897 24.68 70.8997C24.94 70.7997 25.24 70.7697 25.58 70.7697C25.91 70.7697 26.14 70.7997 26.28 70.8597V71.8897C25.6472 71.7982 25.0029 71.8253 24.38 71.9697C24.09 72.0697 23.75 72.2397 23.34 72.4897V76.9097H22.3V70.8297H23.1L23.35 71.5997L23.62 71.4297C23.77 71.3297 23.92 71.2297 24.07 71.1597H24.06ZM27.1 71.0897C27.88 70.8397 28.87 70.7197 30.06 70.7197C30.81 70.7197 31.33 70.9697 31.64 71.4797C31.81 71.7597 31.89 72.1097 31.89 72.5397V76.9097H31.09L30.84 76.1997C30.4282 76.4381 29.9925 76.6325 29.54 76.7797C29.14 76.9097 28.8 76.9797 28.5 76.9797C28.03 76.9797 27.65 76.8397 27.35 76.5597C27.06 76.2697 26.91 75.8997 26.91 75.4397V74.7697C26.91 74.3097 27.05 73.9297 27.33 73.6397C27.61 73.3597 28 73.2197 28.5 73.2197H30.84C30.8465 72.9631 30.8465 72.7063 30.84 72.4497C30.84 72.3797 30.82 72.2897 30.8 72.1897C30.7755 72.0998 30.7348 72.0151 30.68 71.9397C30.6302 71.8721 30.5651 71.8172 30.49 71.7797C30.318 71.6894 30.1234 71.6512 29.93 71.6697C29.31 71.6697 28.37 71.7097 27.11 71.7997V71.0897H27.1ZM27.97 75.3297C27.97 75.7897 28.18 76.0197 28.62 76.0197C28.87 76.0197 29.18 75.9697 29.55 75.8797C29.92 75.7797 30.23 75.6797 30.47 75.5897L30.84 75.4597V73.9697L28.6 74.1297C28.18 74.1697 27.97 74.3997 27.97 74.8297V75.3297ZM33.07 74.7497V67.9497H34.12V74.6797C34.12 75.1297 34.17 75.4397 34.28 75.6197C34.38 75.7897 34.53 75.9097 34.74 75.9597C35.32 76.1197 35.64 76.1997 35.69 76.1997V76.9097H34.6C33.58 76.9097 33.07 76.1897 33.07 74.7497ZM36.43 69.8697V69.1497C36.43 68.9497 36.53 68.8497 36.71 68.8497H37.45C37.54 68.8497 37.6 68.8797 37.65 68.9397C37.69 68.9997 37.72 69.0697 37.72 69.1497V69.8697C37.72 70.0497 37.62 70.1397 37.45 70.1397H36.71C36.673 70.1408 36.6361 70.1343 36.6017 70.1205C36.5673 70.1067 36.5361 70.086 36.51 70.0597C36.4844 70.0351 36.4641 70.0056 36.4504 69.973C36.4366 69.9403 36.4297 69.9051 36.43 69.8697ZM36.53 76.9097V70.8297H37.58V76.9097H36.53ZM38.86 71.0897C39.64 70.8397 40.62 70.7197 41.81 70.7197C42.56 70.7197 43.09 70.9697 43.39 71.4797C43.56 71.7597 43.64 72.1097 43.64 72.5397V76.9097H42.84L42.59 76.1997C42.178 76.4377 41.7423 76.6321 41.29 76.7797C40.89 76.9097 40.55 76.9797 40.26 76.9797C39.78 76.9797 39.4 76.8397 39.11 76.5497C38.81 76.2697 38.67 75.8997 38.67 75.4297V74.7697C38.67 74.3097 38.8 73.9297 39.08 73.6397C39.36 73.3597 39.75 73.2097 40.26 73.2097H42.59C42.5964 72.9564 42.5964 72.703 42.59 72.4497C42.59 72.3797 42.57 72.2897 42.55 72.1897C42.5259 72.0996 42.4852 72.0148 42.43 71.9397C42.3828 71.8735 42.3213 71.8188 42.25 71.7797C42.0751 71.6875 41.8767 71.6492 41.68 71.6697C41.06 71.6697 40.12 71.7097 38.86 71.7897V71.0897ZM39.72 75.3297C39.72 75.7897 39.94 76.0197 40.37 76.0197C40.62 76.0197 40.93 75.9697 41.3 75.8797C41.67 75.7797 41.98 75.6797 42.22 75.5897L42.59 75.4597V73.9697L40.35 74.1297C39.93 74.1697 39.72 74.3997 39.72 74.8297V75.3297ZM44.82 76.9097V70.8297H45.61L45.87 71.5297L46.07 71.4097C46.317 71.244 46.578 71.1001 46.85 70.9797L47.06 70.8897L47.28 70.8297C47.5289 70.7688 47.7838 70.7353 48.04 70.7297C48.64 70.7297 49.09 70.9297 49.41 71.3097C49.73 71.6897 49.89 72.1597 49.89 72.7197V76.9097H48.84V72.7197C48.84 72.2197 48.65 71.8997 48.28 71.7597C47.8361 71.6517 47.3703 71.676 46.94 71.8297C46.68 71.9297 46.32 72.0797 45.87 72.3097V76.9097H44.82ZM53.5 70.8297H54.63L56.28 75.4897L57.72 70.8397H58.82L58.26 72.6997L59.49 75.4997L61.17 70.8297H62.31L60.09 76.9097H58.98L57.75 74.1397L56.83 76.9097H55.68L53.49 70.8297H53.5ZM63.08 71.8597C63.1658 71.6584 63.284 71.4726 63.43 71.3097C63.56 71.1697 63.73 71.0597 63.94 70.9797C64.31 70.8497 64.82 70.7797 65.48 70.7797C66.25 70.7797 66.78 70.8597 67.06 71.0097C67.36 71.1697 67.56 71.3797 67.66 71.6497C67.8 71.9797 67.86 72.4197 67.86 72.9597C67.86 73.9197 67.33 74.3897 66.26 74.3897H63.87C63.87 75.0397 63.96 75.4697 64.13 75.6897C64.29 75.8997 64.61 76.0097 65.06 76.0097C66.32 76.0097 67.22 75.9697 67.76 75.8797V76.6497C67.06 76.8597 66.08 76.9697 64.82 76.9697C64.05 76.9697 63.52 76.7397 63.24 76.2897C62.9066 75.5926 62.7618 74.8202 62.82 74.0497C62.82 72.9997 62.91 72.2797 63.08 71.8597ZM66.81 72.9397C66.81 72.6397 66.8 72.4397 66.77 72.2897C66.7457 72.1534 66.675 72.0298 66.57 71.9397C66.4594 71.8461 66.3238 71.787 66.18 71.7697C65.707 71.7448 65.233 71.7448 64.76 71.7697C64.6572 71.7788 64.5562 71.8024 64.46 71.8397C64.41 71.8597 64.34 71.8997 64.26 71.9597C64.1766 72.0085 64.1102 72.0818 64.07 72.1697L63.97 72.4797C63.9 72.6797 63.87 73.0097 63.87 73.4597H66.15C66.59 73.4597 66.81 73.2897 66.81 72.9397ZM69.96 67.9297V71.1897C70.29 71.0497 70.66 70.9397 71.07 70.8597C71.48 70.7797 71.82 70.7397 72.07 70.7397C72.32 70.7397 72.57 70.7697 72.76 70.8397C73.1176 70.93 73.426 71.156 73.62 71.4697C73.72 71.6297 73.8 71.7897 73.86 71.9697C73.92 72.1297 73.97 72.3297 74.01 72.5697C74.07 72.9397 74.11 73.3797 74.11 73.8997C74.11 75.9597 73.44 76.9797 72.11 76.9797C71.7049 76.9674 71.3053 76.8827 70.93 76.7297C70.5898 76.6138 70.2669 76.4523 69.97 76.2497L69.73 76.9097H68.93V67.9297H69.96ZM72 75.9897C72.7 75.9897 73.05 75.2897 73.05 73.8897C73.05 73.0197 72.95 72.4297 72.78 72.1297C72.7016 71.9936 72.5875 71.8816 72.45 71.8058C72.3125 71.73 72.1569 71.6933 72 71.6997C71.31 71.6997 70.64 71.7997 69.97 71.9797V75.4997C70.7 75.8297 71.37 75.9997 72 75.9997V75.9897ZM78.03 69.8697V69.1497C78.03 68.9497 78.12 68.8497 78.3 68.8497H79.05C79.13 68.8497 79.2 68.8797 79.24 68.9397C79.29 68.9997 79.31 69.0697 79.31 69.1497V69.8697C79.31 70.0497 79.22 70.1397 79.05 70.1397H78.3C78.263 70.1402 78.2263 70.1334 78.192 70.1197C78.1577 70.106 78.1264 70.0856 78.1 70.0597C78.0529 70.0078 78.0278 69.9397 78.03 69.8697ZM78.12 76.9097V70.8297H79.17V76.9097H78.12ZM80.48 76.9097V70.8297H81.27L81.53 71.5297L81.72 71.4097L81.92 71.2897L82.11 71.1897C82.21 71.1297 82.27 71.0897 82.31 71.0797L82.51 70.9797L82.71 70.8897L82.93 70.8297C83.179 70.7689 83.4338 70.7353 83.69 70.7297C84.29 70.7297 84.74 70.9297 85.06 71.3097C85.38 71.6897 85.54 72.1597 85.54 72.7197V76.9097H84.5V72.7197C84.5 72.2197 84.31 71.8997 83.94 71.7597C83.4961 71.6517 83.0303 71.676 82.6 71.8297C82.34 71.9297 81.99 72.0797 81.54 72.3097V76.9097H80.49H80.48ZM86.5 73.8997C86.5 72.6997 86.68 71.8497 87.04 71.3697C87.37 70.9497 87.84 70.7397 88.49 70.7397C88.89 70.7397 89.29 70.7897 89.69 70.8997C90.09 70.9997 90.41 71.0997 90.63 71.1897V67.9297H91.67V76.9097H90.87L90.63 76.2497C90.333 76.4521 90.0101 76.6135 89.67 76.7297C89.22 76.8897 88.83 76.9797 88.49 76.9797C87.16 76.9797 86.49 75.9497 86.49 73.8997H86.5ZM87.55 73.8997C87.55 75.2997 87.9 75.9997 88.6 75.9997C89.23 75.9997 89.9 75.8297 90.63 75.4997V71.9797C89.9685 71.7989 89.2857 71.7081 88.6 71.7097C88.3977 71.7002 88.1978 71.7564 88.03 71.8697C87.71 72.1197 87.55 72.7897 87.55 73.8897V73.8997ZM92.83 75.0097V70.8297H93.89V75.0297C93.89 75.3697 93.97 75.6297 94.14 75.7897C94.31 75.9597 94.56 76.0397 94.89 76.0397C95.23 76.0397 95.53 75.9997 95.79 75.9097C96.05 75.8197 96.4 75.6597 96.85 75.4297V70.8297H97.9V76.9097H97.12L96.85 76.2197L96.58 76.3797C96.4035 76.4977 96.216 76.5982 96.02 76.6797C95.8298 76.7897 95.6242 76.8706 95.41 76.9197C95.21 76.9797 94.96 77.0197 94.69 77.0197C94.09 77.0197 93.63 76.8197 93.31 76.4397C92.9849 76.0353 92.8147 75.5283 92.83 75.0097ZM100.58 70.7797C101.587 70.7762 102.593 70.8463 103.59 70.9897V71.7497H100.67C100.38 71.7497 100.2 71.7997 100.12 71.8897C100.05 71.9797 100.01 72.1297 100.01 72.3497V72.7997C100.01 73.0797 100.07 73.2497 100.21 73.2997C100.31 73.3597 100.47 73.3897 100.67 73.3897H102.37C102.71 73.3897 103 73.4497 103.23 73.5897C103.68 73.8397 103.9 74.2797 103.9 74.8897V75.4697C103.9 76.4697 103.4 76.9697 102.41 76.9697C101.339 76.956 100.27 76.8725 99.21 76.7197V75.9797H102.27C102.66 75.9797 102.84 75.7997 102.84 75.4397V74.9497C102.84 74.6997 102.77 74.5297 102.63 74.4497C102.517 74.3988 102.394 74.3748 102.27 74.3797H100.57C100.01 74.3797 99.6 74.2797 99.34 74.0397C99.08 73.8197 98.95 73.4197 98.95 72.8497V72.3197C98.95 71.8197 99.08 71.4497 99.32 71.1797C99.57 70.9097 99.98 70.7797 100.58 70.7797ZM106.45 69.1297V70.8297H108.11V71.7697H106.45V74.6697C106.45 75.1197 106.5 75.4297 106.6 75.6097C106.7 75.7797 106.86 75.8997 107.07 75.9497C107.65 76.1097 107.97 76.1897 108.02 76.1897V76.8897H106.91C105.91 76.8897 105.4 76.1797 105.4 74.7397V71.7697H104.31V71.0697L105.4 70.8197L105.63 69.1297H106.45ZM110.85 71.1597C111 71.0697 111.2 70.9897 111.46 70.8997C111.72 70.7997 112.02 70.7697 112.36 70.7697C112.69 70.7697 112.92 70.7997 113.06 70.8597V71.8897C112.427 71.7984 111.783 71.8255 111.16 71.9697C110.87 72.0697 110.53 72.2397 110.12 72.4897V76.9097H109.07V70.8297H109.87L110.12 71.5997L110.39 71.4297C110.54 71.3297 110.69 71.2297 110.85 71.1597ZM113.5 70.8297H114.63L115.99 75.4397C116.09 75.8197 116.33 75.9697 116.69 75.8997H116.71L118.31 70.8297H119.45L116.92 78.8297L116.08 79.9997H115.38L116.4 76.9097C115.66 76.9097 115.17 76.4597 114.9 75.5697L113.5 70.8397V70.8297ZM123.16 71.0897C123.94 70.8397 124.92 70.7197 126.11 70.7197C126.86 70.7197 127.38 70.9697 127.69 71.4797C127.86 71.7597 127.94 72.1097 127.94 72.5397V76.9097H127.14L126.89 76.1997C126.478 76.438 126.042 76.6324 125.59 76.7797C125.19 76.9097 124.85 76.9797 124.55 76.9797C124.08 76.9797 123.7 76.8397 123.4 76.5597C123.11 76.2697 122.96 75.8997 122.96 75.4397V74.7697C122.96 74.3097 123.1 73.9297 123.38 73.6397C123.66 73.3597 124.05 73.2197 124.56 73.2197H126.89C126.897 72.9631 126.897 72.7063 126.89 72.4497C126.89 72.3797 126.88 72.2897 126.85 72.1897C126.82 72.0897 126.78 72.0097 126.73 71.9397C126.68 71.8697 126.63 71.8197 126.55 71.7797C126.375 71.6875 126.177 71.6492 125.98 71.6697C125.36 71.6697 124.42 71.7097 123.16 71.7997V71.0897ZM124.02 75.3297C124.02 75.7897 124.23 76.0197 124.67 76.0197C124.92 76.0197 125.23 75.9697 125.6 75.8797C125.97 75.7797 126.28 75.6797 126.52 75.5897L126.89 75.4597V73.9697L124.65 74.1297C124.23 74.1697 124.02 74.3997 124.02 74.8297V75.3297ZM130.52 70.7797C131.53 70.7757 132.54 70.8459 133.54 70.9897V71.7497H130.62C130.32 71.7497 130.14 71.7997 130.07 71.8897C129.99 71.9797 129.95 72.1297 129.95 72.3497V72.7997C129.95 73.0797 130.02 73.2497 130.15 73.2997C130.25 73.3597 130.41 73.3897 130.62 73.3897H132.32C132.66 73.3897 132.94 73.4497 133.18 73.5897C133.62 73.8397 133.84 74.2797 133.84 74.8897V75.4697C133.84 76.4697 133.34 76.9697 132.36 76.9697C131.289 76.956 130.22 76.8725 129.16 76.7197V75.9797H132.22C132.6 75.9797 132.79 75.7997 132.79 75.4397V74.9497C132.79 74.6997 132.72 74.5297 132.57 74.4497C132.46 74.4 132.34 74.376 132.22 74.3797H130.52C129.96 74.3797 129.55 74.2797 129.29 74.0397C129.03 73.8197 128.9 73.4197 128.9 72.8497V72.3197C128.9 71.8197 129.02 71.4497 129.27 71.1797C129.51 70.9097 129.93 70.7797 130.52 70.7797ZM136.2 70.7797C137.207 70.7761 138.213 70.8463 139.21 70.9897V71.7497H136.29C136 71.7497 135.82 71.7997 135.74 71.8897C135.67 71.9797 135.64 72.1297 135.64 72.3497V72.7997C135.64 73.0797 135.69 73.2497 135.82 73.2997C135.93 73.3597 136.09 73.3897 136.29 73.3897H137.99C138.33 73.3897 138.62 73.4497 138.86 73.5897C139.3 73.8397 139.52 74.2797 139.52 74.8897V75.4697C139.52 76.4697 139.02 76.9697 138.03 76.9697C136.959 76.956 135.89 76.8725 134.83 76.7197V75.9797H137.89C138.28 75.9797 138.47 75.7997 138.47 75.4397V74.9497C138.47 74.6997 138.4 74.5297 138.25 74.4497C138.14 74.4 138.02 74.376 137.9 74.3797H136.19C135.63 74.3797 135.23 74.2797 134.96 74.0397C134.71 73.8197 134.58 73.4197 134.58 72.8497V72.3197C134.58 71.8197 134.7 71.4497 134.94 71.1797C135.19 70.9097 135.61 70.7797 136.2 70.7797ZM140.48 73.9597C140.48 73.1297 140.57 72.4797 140.75 72.0197C140.92 71.5697 141.2 71.2397 141.58 71.0597C142.086 70.849 142.633 70.7534 143.18 70.7797C144.21 70.7797 144.92 71.0097 145.31 71.4597C145.69 71.9197 145.88 72.7397 145.88 73.9097C145.88 75.0797 145.69 75.8797 145.31 76.3097C144.92 76.7497 144.21 76.9697 143.2 76.9697C142.17 76.9697 141.47 76.7397 141.07 76.2897C140.68 75.8397 140.48 75.0597 140.48 73.9597ZM141.7 72.4697C141.64 72.6397 141.6 72.8397 141.57 73.0797C141.519 73.6452 141.519 74.2142 141.57 74.7797C141.6 74.9997 141.65 75.1797 141.72 75.3397C141.79 75.4797 141.86 75.5997 141.94 75.6897C142.02 75.7897 142.14 75.8497 142.28 75.8897C142.5 75.9697 142.78 75.9997 143.09 75.9997C143.4 75.9997 143.65 75.9897 143.8 75.9697C143.95 75.9497 144.1 75.8997 144.25 75.8297C144.399 75.7587 144.519 75.6386 144.59 75.4897C144.75 75.1597 144.83 74.6497 144.83 73.9597C144.83 73.2597 144.79 72.7897 144.71 72.5597C144.651 72.3931 144.571 72.235 144.47 72.0897C144.39 71.9855 144.283 71.9058 144.16 71.8597C143.897 71.7686 143.618 71.7279 143.34 71.7397C143.02 71.7397 142.78 71.7397 142.64 71.7597C142.51 71.7797 142.37 71.8097 142.23 71.8597C142.09 71.9097 141.98 71.9797 141.91 72.0697C141.84 72.1697 141.77 72.2997 141.71 72.4697H141.7ZM146.94 75.1997C146.867 74.7602 146.834 74.3151 146.84 73.8697C146.84 73.3497 146.87 72.9197 146.94 72.5497C147 72.1797 147.08 71.8797 147.2 71.6497C147.3 71.4297 147.45 71.2497 147.62 71.1097C147.92 70.8897 148.33 70.7797 148.84 70.7797C149.736 70.7826 150.629 70.89 151.5 71.0997V71.7997C150.52 71.7597 149.83 71.7397 149.4 71.7397C148.97 71.7397 148.72 71.7397 148.63 71.7697C148.53 71.7897 148.43 71.8297 148.33 71.9097C148.212 71.9926 148.124 72.112 148.08 72.2497C147.95 72.6097 147.88 73.1197 147.88 73.7697C147.88 74.4197 147.93 74.9097 148 75.2097C148.08 75.5097 148.2 75.7097 148.35 75.8297C148.51 75.9397 148.74 75.9897 149.05 75.9897C149.65 75.9897 150.36 75.9697 151.17 75.9097L151.57 75.8797V76.6197C151.04 76.8097 150.44 76.9197 149.79 76.9397C148.99 76.9797 148.49 76.9697 148.26 76.9197C148.036 76.8661 147.825 76.7674 147.64 76.6297C147.46 76.4997 147.32 76.3197 147.21 76.0897C147.1 75.8597 147.01 75.5697 146.94 75.1897V75.1997ZM152.53 69.8697V69.1497C152.53 68.9497 152.63 68.8497 152.81 68.8497H153.55C153.63 68.8497 153.7 68.8797 153.75 68.9397C153.79 68.9997 153.81 69.0697 153.81 69.1497V69.8697C153.81 70.0497 153.72 70.1397 153.55 70.1397H152.8C152.763 70.1408 152.726 70.1343 152.692 70.1205C152.657 70.1067 152.626 70.086 152.6 70.0597C152.553 70.0078 152.528 69.9397 152.53 69.8697ZM152.63 76.9097V70.8297H153.68V76.9097H152.62H152.63ZM154.96 71.0897C155.73 70.8397 156.72 70.7197 157.91 70.7197C158.66 70.7197 159.18 70.9697 159.49 71.4797C159.66 71.7597 159.74 72.1097 159.74 72.5397V76.9097H158.94L158.69 76.1997C158.278 76.438 157.842 76.6324 157.39 76.7797C156.99 76.9097 156.65 76.9797 156.35 76.9797C155.88 76.9797 155.5 76.8397 155.2 76.5597C154.91 76.2697 154.76 75.8997 154.76 75.4397V74.7697C154.76 74.3097 154.9 73.9297 155.18 73.6397C155.46 73.3597 155.85 73.2197 156.35 73.2197H158.69C158.697 72.9631 158.697 72.7063 158.69 72.4497C158.69 72.3797 158.68 72.2897 158.65 72.1897C158.62 72.0897 158.58 72.0097 158.53 71.9397C158.48 71.8697 158.43 71.8197 158.35 71.7797C158.175 71.6875 157.977 71.6492 157.78 71.6697C157.16 71.6697 156.22 71.7097 154.96 71.7997V71.0897ZM155.81 75.3297C155.81 75.7897 156.03 76.0197 156.47 76.0197C156.72 76.0197 157.03 75.9697 157.4 75.8797C157.77 75.7797 158.08 75.6797 158.32 75.5897L158.69 75.4597V73.9697L156.44 74.1297C156.02 74.1697 155.81 74.3997 155.81 74.8297V75.3297ZM162.63 69.1297V70.8297H164.3V71.7697H162.63V74.6697C162.607 74.9913 162.662 75.3138 162.79 75.6097C162.89 75.7797 163.05 75.8997 163.25 75.9497C163.83 76.1097 164.15 76.1897 164.2 76.1897V76.8897H163.1C162.09 76.8897 161.58 76.1797 161.58 74.7397V71.7697H160.5V71.0697L161.58 70.8197L161.81 69.1297H162.63ZM165.15 69.8697V69.1497C165.15 68.9497 165.25 68.8497 165.43 68.8497H166.17C166.25 68.8497 166.32 68.8797 166.37 68.9397C166.41 68.9997 166.43 69.0697 166.43 69.1497V69.8697C166.43 70.0497 166.34 70.1397 166.17 70.1397H165.42C165.383 70.1408 165.346 70.1343 165.312 70.1205C165.277 70.1067 165.246 70.086 165.22 70.0597C165.173 70.0078 165.148 69.9397 165.15 69.8697ZM165.25 76.9097V70.8297H166.3V76.9097H165.24H165.25ZM167.5 73.9597C167.5 73.1297 167.59 72.4797 167.76 72.0197C167.94 71.5697 168.22 71.2397 168.6 71.0597C169.106 70.849 169.653 70.7534 170.2 70.7797C171.23 70.7797 171.94 71.0097 172.32 71.4597C172.71 71.9197 172.9 72.7397 172.9 73.9097C172.9 75.0797 172.7 75.8797 172.32 76.3097C171.94 76.7497 171.23 76.9697 170.22 76.9697C169.19 76.9697 168.48 76.7397 168.09 76.2897C167.69 75.8397 167.49 75.0597 167.49 73.9597H167.5ZM168.72 72.4697C168.65 72.6397 168.61 72.8397 168.59 73.0797C168.539 73.6452 168.539 74.2142 168.59 74.7797C168.62 74.9997 168.67 75.1797 168.74 75.3397C168.8 75.4797 168.88 75.5997 168.96 75.6897C169.04 75.7897 169.16 75.8497 169.3 75.8897C169.52 75.9697 169.79 75.9997 170.1 75.9997C170.41 75.9997 170.67 75.9897 170.82 75.9697C170.97 75.9497 171.12 75.8997 171.27 75.8297C171.419 75.7593 171.54 75.6391 171.61 75.4897C171.77 75.1597 171.85 74.6497 171.85 73.9597C171.85 73.2597 171.81 72.7897 171.72 72.5597C171.664 72.3936 171.587 72.2356 171.49 72.0897C171.408 71.984 171.296 71.9041 171.17 71.8597C170.913 71.771 170.642 71.7304 170.37 71.7397C170.03 71.7397 169.8 71.7397 169.67 71.7597C169.527 71.777 169.386 71.8105 169.25 71.8597C169.125 71.8965 169.014 71.9696 168.93 72.0697C168.85 72.1697 168.78 72.2997 168.72 72.4697ZM174.07 76.9097V70.8297H174.86L175.12 71.5297L175.31 71.4097C175.762 71.1335 176.25 70.9214 176.76 70.7797C176.96 70.7497 177.14 70.7297 177.28 70.7297C177.88 70.7297 178.33 70.9297 178.65 71.3097C178.97 71.6897 179.13 72.1597 179.13 72.7197V76.9097H178.08V72.7197C178.08 72.2197 177.89 71.8997 177.52 71.7597C177.076 71.6511 176.61 71.6755 176.18 71.8297C175.92 71.9297 175.57 72.0797 175.12 72.3097V76.9097H174.07Z" fill="white"></path><path d="M121.64 28.62C123.473 27.6003 125.469 26.9067 127.54 26.57C128.596 26.3823 129.667 26.2886 130.74 26.29C132.359 26.2861 133.972 26.4877 135.54 26.89C136.688 27.2008 137.798 27.6367 138.85 28.19L147.02 22.49C146.685 22.0783 146.419 21.6158 146.23 21.12C146.132 20.8231 146.081 20.5127 146.08 20.2C146.088 19.9198 146.142 19.6428 146.24 19.38C146.29 19.25 146.35 19.13 146.42 19.01L137.34 13L136.94 13.08L136.5 13.16C135.76 13.279 135.009 13.3258 134.26 13.3C133.207 13.2869 132.157 13.1629 131.13 12.93C130.57 12.81 130.03 12.66 129.51 12.48L129.38 12.43C124.017 17.8083 119.799 24.2171 116.98 31.27L117.33 32.1L117.41 32C118.614 30.6337 120.05 29.4897 121.65 28.62H121.64ZM131.28 10.73C131.838 10.9181 132.415 11.0455 133 11.11L133.37 11.15L133.74 11.16C134.283 11.1719 134.825 11.1317 135.36 11.04C135.632 10.9797 135.9 10.8995 136.16 10.8C136.59 10.62 136.9 10.4 137.1 10.16C137.3 9.92 137.4 9.66 137.4 9.38C137.4 9.11 137.3 8.83 137.1 8.55C136.9 8.28 136.6 8.01 136.2 7.76C135.907 7.58 135.6 7.42607 135.28 7.3L135.25 7.29C133.842 8.35985 132.483 9.4944 131.18 10.69L131.28 10.73ZM175.32 33C174.88 32.9 174.47 32.86 174.08 32.87C173.577 32.8776 173.08 32.9864 172.62 33.19C172.386 33.311 172.173 33.4698 171.99 33.66C171.585 34.1384 171.381 34.7546 171.42 35.38C171.44 35.91 171.6 36.49 171.88 37.08C172.16 37.68 172.56 38.28 173.08 38.86C173.5 39.34 173.99 39.79 174.55 40.21C175.802 38.2399 176.927 36.1924 177.92 34.08C177.113 33.5901 176.236 33.226 175.32 33ZM138.57 6.9C139.18 7.28 139.67 7.69 140.04 8.1C140.42 8.52 140.67 8.96 140.79 9.38C140.92 9.82 140.91 10.26 140.77 10.67C140.63 11.09 140.34 11.49 139.9 11.85L148.77 17.55L148.91 17.51L149.06 17.48L149.21 17.46L149.35 17.44C150.028 17.3516 150.715 17.3617 151.39 17.47C152.108 17.5645 152.813 17.7424 153.49 18L159.09 14.09C158.583 13.7004 158.13 13.2466 157.74 12.74C157.442 12.3648 157.224 11.9326 157.1 11.47C157 11.07 157.03 10.7 157.17 10.37C157.32 10.06 157.57 9.77 157.95 9.57C158.218 9.41123 158.508 9.29326 158.81 9.22C159.29 9.09691 159.785 9.04304 160.28 9.06C160.728 9.06019 161.176 9.09362 161.62 9.16C162.398 9.27489 163.165 9.45895 163.91 9.71C159.181 5.60492 153.796 2.32267 147.98 0C144.065 1.59944 140.344 3.63923 136.89 6.08H136.92C137.51 6.32 138.06 6.6 138.57 6.91V6.9ZM169.08 16.24C168.629 16.5115 168.124 16.6821 167.6 16.74C166.963 16.8281 166.317 16.8281 165.68 16.74C164.702 16.6437 163.741 16.4219 162.82 16.08C162.502 15.9682 162.189 15.8448 161.88 15.71L156.53 19.91C156.79 20.17 157.02 20.45 157.2 20.73C157.39 21.01 157.53 21.3 157.63 21.58C157.73 21.88 157.79 22.16 157.81 22.44C157.81 22.73 157.78 23.01 157.69 23.28L168.87 30.45C169.282 30.1795 169.734 29.977 170.21 29.85C170.81 29.68 171.47 29.6 172.17 29.6C172.86 29.6 173.6 29.69 174.36 29.86C175.12 30.02 175.91 30.27 176.71 30.6C177.45 30.9 178.2 31.29 178.95 31.74L179.25 31.01C176.944 25.3668 173.731 20.138 169.74 15.53C169.598 15.8285 169.367 16.0762 169.08 16.24ZM137.3 32C136.516 31.3699 135.625 30.8855 134.67 30.57C133.659 30.2179 132.6 30.0256 131.53 30C130.842 29.9617 130.151 29.9953 129.47 30.1C128.273 30.273 127.11 30.6271 126.02 31.15C124.721 31.7566 123.589 32.6694 122.72 33.81C122.096 34.6174 121.659 35.5532 121.44 36.55C121.24 37.54 121.27 38.55 121.58 39.53C121.88 40.53 122.47 41.48 123.34 42.31C123.97 42.91 124.71 43.4 125.51 43.78C126.32 44.17 127.2 44.44 128.11 44.6C131.05 45.1162 134.076 44.4709 136.55 42.8C136.85 42.59 137.12 42.37 137.38 42.13C138.211 41.4033 138.876 40.5063 139.33 39.5C139.716 38.6586 139.901 37.7389 139.869 36.8137C139.838 35.8886 139.592 34.9834 139.15 34.17C138.691 33.3285 138.065 32.59 137.31 32H137.3Z" fill="#00A94F"></path><path d="M170.26 40.9602C169.443 40.0655 168.738 39.0749 168.16 38.0102C167.68 37.1279 167.339 36.1766 167.15 35.1902C166.99 34.3102 167.01 33.4902 167.21 32.7502L155.63 25.1002L155.48 25.1402L155.32 25.1802L155.17 25.2202L155.01 25.2602C154.16 25.4335 153.285 25.447 152.43 25.3002C151.713 25.21 151.011 25.0286 150.34 24.7602L142.47 30.9302C143.37 31.9102 144.07 33.0002 144.55 34.1502C145.061 35.3799 145.318 36.6998 145.308 38.0313C145.298 39.3627 145.02 40.6785 144.49 41.9002C143.856 43.4009 142.94 44.7657 141.79 45.9202C140.947 46.786 140.004 47.5481 138.98 48.1902C137.905 48.8683 136.758 49.425 135.56 49.8502C134.04 50.4102 132.44 50.7602 130.81 50.9202L130.5 50.9402C135.646 55.8047 141.665 59.6523 148.24 62.2802C157.979 58.2797 166.409 51.6407 172.58 43.1102C171.72 42.4402 170.94 41.7102 170.26 40.9602ZM160.78 13.0602C161.292 13.542 161.889 13.9251 162.54 14.1902C163.292 14.5215 164.092 14.7308 164.91 14.8102C165.156 14.8338 165.404 14.8304 165.65 14.8002C165.844 14.7771 166.035 14.7335 166.22 14.6702L166.46 14.5702L166.65 14.4302C166.85 14.2602 166.95 14.0502 166.95 13.8102C166.96 13.5802 166.88 13.3302 166.73 13.0702C166.545 12.7762 166.316 12.513 166.05 12.2902C165.553 11.8514 164.985 11.4998 164.37 11.2502C163.673 10.9598 162.94 10.7679 162.19 10.6802L161.94 10.6602H161.7C161.431 10.6676 161.163 10.7011 160.9 10.7602C160.742 10.8066 160.59 10.8738 160.45 10.9602C160.348 11.0197 160.26 11.0991 160.189 11.1936C160.119 11.288 160.068 11.3957 160.04 11.5102C159.99 11.7302 160.03 11.9802 160.15 12.2402C160.28 12.5102 160.49 12.7802 160.78 13.0602ZM155 20.5002C154.716 20.1735 154.386 19.8905 154.02 19.6602C153.456 19.3001 152.833 19.0428 152.18 18.9002C151.573 18.7649 150.948 18.7311 150.33 18.8002C149.999 18.8474 149.677 18.9382 149.37 19.0702C149.127 19.1818 148.909 19.3417 148.73 19.5402C148.523 19.7663 148.396 20.0546 148.37 20.3602C148.352 20.6986 148.421 21.036 148.57 21.3402C148.76 21.6999 149.011 22.0245 149.31 22.3002C149.665 22.6284 150.07 22.8984 150.51 23.1002C151.459 23.5655 152.516 23.7659 153.57 23.6802C153.66 23.6802 153.75 23.6602 153.84 23.6402C154.181 23.5804 154.509 23.4619 154.81 23.2902C154.9 23.2402 154.98 23.1802 155.06 23.1102C155.33 22.8902 155.5 22.6102 155.58 22.3302C155.66 22.0402 155.64 21.7302 155.54 21.4202C155.44 21.1102 155.26 20.7902 155 20.4902V20.5002Z" fill="#00A94F"></path><path d="M173.07 38.8698C172.587 38.3294 172.183 37.7234 171.87 37.0698C171.611 36.5415 171.458 35.9672 171.42 35.3798C171.4 34.8598 171.5 34.3798 171.75 33.9798C171.958 33.638 172.26 33.3636 172.62 33.1898C173.072 32.9613 173.574 32.8512 174.08 32.8698C174.47 32.8698 174.88 32.8998 175.32 32.9998C175.75 33.0998 176.2 33.2298 176.65 33.4198C177.07 33.5998 177.49 33.8198 177.92 34.0798C178.28 33.3098 178.62 32.5298 178.95 31.7398C178.232 31.306 177.483 30.925 176.71 30.5998C175.91 30.2698 175.11 30.0298 174.36 29.8598C173.638 29.6958 172.9 29.6087 172.16 29.5998C171.253 29.5957 170.353 29.7654 169.51 30.0998C169.287 30.2024 169.073 30.3228 168.87 30.4598L157.69 23.2798C157.78 23.0098 157.81 22.7298 157.8 22.4498C157.786 22.1563 157.729 21.8665 157.63 21.5898C157.53 21.2998 157.38 21.0098 157.2 20.7298C157.01 20.4498 156.79 20.1698 156.53 19.9098L161.88 15.7098C162.8 16.1075 163.758 16.4091 164.74 16.6098C165.542 16.7524 166.356 16.8094 167.17 16.7798C167.506 16.7537 167.841 16.7035 168.17 16.6298C168.486 16.5393 168.788 16.4082 169.07 16.2398C169.356 16.0792 169.586 15.835 169.73 15.5398C167.93 13.4586 165.981 11.5102 163.9 9.70984C163.006 9.41817 162.084 9.21715 161.15 9.10984C160.725 9.06958 160.297 9.05622 159.87 9.06984C159.513 9.09296 159.158 9.14649 158.81 9.22984C158.511 9.3053 158.223 9.41609 157.95 9.55984C157.57 9.77984 157.31 10.0598 157.17 10.3798C157.03 10.6998 157 11.0798 157.1 11.4698C157.2 11.8698 157.4 12.2998 157.74 12.7398C158.08 13.1898 158.53 13.6398 159.09 14.0898L153.48 17.9998C152.162 17.5092 150.751 17.3212 149.35 17.4498C149.3 17.4498 149.25 17.4498 149.2 17.4698C149.15 17.4898 149.1 17.4798 149.06 17.4898L148.91 17.5198L148.76 17.5498L139.9 11.8498C140.33 11.4898 140.62 11.0898 140.77 10.6698C140.91 10.2598 140.92 9.82984 140.79 9.38984C140.639 8.91235 140.383 8.47489 140.04 8.10984C139.611 7.64081 139.116 7.2366 138.57 6.90984C138.07 6.60984 137.5 6.32984 136.92 6.08984H136.89C136.33 6.46984 135.79 6.87984 135.25 7.28984L135.28 7.29984C135.61 7.43984 135.92 7.59984 136.2 7.76984C136.6 8.01984 136.9 8.27984 137.1 8.55984C137.3 8.82984 137.4 9.10984 137.4 9.38984C137.4 9.65984 137.3 9.92984 137.1 10.1698C136.9 10.4098 136.58 10.6298 136.16 10.7998C135.614 11.0253 135.031 11.1474 134.44 11.1598C134.207 11.1703 133.973 11.1703 133.74 11.1598H133.37L133 11.1098C132.414 11.0474 131.837 10.92 131.28 10.7298C131.24 10.7298 131.22 10.6998 131.18 10.6898C130.57 11.2598 129.96 11.8398 129.37 12.4398L129.5 12.4898C130.807 12.9357 132.17 13.1982 133.55 13.2698C134.531 13.3418 135.516 13.3083 136.49 13.1698L136.92 13.0898L137.33 12.9998L146.43 19.0098C146.2 19.3676 146.078 19.7844 146.08 20.2098C146.078 20.5162 146.129 20.8207 146.23 21.1098C146.332 21.4407 146.484 21.7542 146.68 22.0398C146.78 22.1998 146.9 22.3498 147.02 22.4998L138.85 28.1998C137.799 27.6366 136.684 27.2002 135.53 26.8998C133.968 26.4828 132.357 26.2809 130.74 26.2998C129.667 26.2955 128.597 26.3859 127.54 26.5698C125.476 26.93 123.483 27.6223 121.64 28.6198C120.039 29.4932 118.604 30.6406 117.4 32.0098L117.32 32.1098C120.372 39.2287 124.859 45.642 130.5 50.9498L130.81 50.9298C133.073 50.71 135.28 50.0939 137.33 49.1098C138.444 48.5636 139.497 47.8998 140.47 47.1298C140.94 46.7498 141.38 46.3498 141.8 45.9298C142.946 44.7745 143.859 43.4098 144.49 41.9098C145.04 40.5698 145.3 39.2098 145.29 37.8798C145.29 36.5898 145.03 35.3398 144.54 34.1498C144.047 32.9618 143.346 31.8714 142.47 30.9298L150.34 24.7598C151.825 25.3216 153.429 25.4937 155 25.2598C155.06 25.2598 155.11 25.2398 155.16 25.2298L155.32 25.1898L155.47 25.1498L155.62 25.0998L167.2 32.7598C167.002 33.5557 166.982 34.3852 167.14 35.1898C167.3 36.0898 167.64 37.0498 168.16 38.0198C168.69 39.0098 169.39 40.0098 170.26 40.9698C170.94 41.7198 171.71 42.4398 172.58 43.1198C173.26 42.1698 173.92 41.1998 174.54 40.2198C174.007 39.8185 173.515 39.3664 173.07 38.8698ZM160.04 11.4998C160.09 11.2798 160.22 11.0998 160.45 10.9498C160.588 10.8598 160.74 10.7923 160.9 10.7498C161.16 10.6743 161.43 10.6405 161.7 10.6498C161.951 10.6462 162.202 10.663 162.45 10.6998C163.114 10.7805 163.761 10.9626 164.37 11.2398L164.99 11.5398C165.369 11.7476 165.724 11.9957 166.05 12.2798C166.35 12.5398 166.58 12.7998 166.73 13.0598C166.89 13.3198 166.96 13.5698 166.96 13.7998C166.95 14.0398 166.85 14.2498 166.65 14.4198C166.522 14.5244 166.376 14.6057 166.22 14.6598C166.037 14.7289 165.845 14.7727 165.65 14.7898C165.404 14.8209 165.156 14.8243 164.91 14.7998C164.583 14.7825 164.258 14.7356 163.94 14.6598C162.77 14.3907 161.685 13.8378 160.78 13.0498C160.49 12.7698 160.28 12.4998 160.16 12.2298C160.038 12.0074 159.995 11.7497 160.04 11.4998ZM139.34 39.4998C138.74 40.836 137.773 41.9737 136.55 42.7798C135.66 43.4184 134.669 43.905 133.62 44.2198C131.838 44.7773 129.95 44.9041 128.11 44.5898C127.2 44.4298 126.32 44.1498 125.51 43.7698C124.713 43.3942 123.981 42.8947 123.34 42.2898C122.524 41.53 121.918 40.5725 121.58 39.5098C121.281 38.548 121.232 37.5256 121.44 36.5398C121.64 35.5798 122.07 34.6498 122.71 33.7998C123.579 32.6592 124.711 31.7465 126.01 31.1398C127.095 30.5954 128.265 30.2403 129.47 30.0898C130.693 29.9235 131.934 29.9471 133.15 30.1598C134.165 30.3495 135.146 30.6899 136.06 31.1698C136.5 31.4098 136.92 31.6798 137.31 31.9898C138.11 32.6198 138.73 33.3598 139.16 34.1598C139.6 34.9741 139.845 35.8796 139.874 36.8048C139.904 37.7299 139.718 38.6492 139.33 39.4898L139.34 39.4998ZM155.58 22.3098C155.5 22.6098 155.33 22.8698 155.06 23.0998C154.898 23.2374 154.716 23.3488 154.52 23.4298C154.299 23.5239 154.067 23.5911 153.83 23.6298L153.57 23.6698C153.38 23.6865 153.19 23.6965 153 23.6998C152.646 23.7015 152.294 23.6612 151.95 23.5798C150.97 23.3806 150.057 22.9329 149.3 22.2798C149 22.005 148.749 21.6802 148.56 21.3198C148.412 21.0187 148.343 20.6849 148.36 20.3498C148.393 20.044 148.522 19.7567 148.73 19.5298C148.982 19.2464 149.307 19.0387 149.67 18.9298C149.885 18.8586 150.106 18.8084 150.33 18.7798C150.947 18.6879 151.576 18.7219 152.18 18.8798C152.831 19.0289 153.453 19.2858 154.02 19.6398C154.42 19.8998 154.75 20.1798 155 20.4798C155.26 20.7798 155.44 21.0898 155.54 21.3998C155.64 21.7198 155.66 22.0298 155.58 22.3098Z" fill="white"></path><path d="M64.81 33.4401V50.8401C64.8346 51.3871 64.7443 51.9333 64.5449 52.4433C64.3455 52.9533 64.0414 53.4159 63.6523 53.8012C63.2632 54.1866 62.7977 54.4861 62.2857 54.6805C61.7738 54.875 61.2268 54.96 60.68 54.9301C60.28 54.9301 59.82 54.8301 59.32 54.6301C58.2869 54.186 57.4268 53.4171 56.87 52.4401C56.6 51.9601 56.47 51.4401 56.47 50.8401V33.4401H48.92V50.8401C48.92 52.0601 48.56 53.0301 47.82 53.7901C47.2644 54.346 46.5552 54.7231 45.7836 54.8728C45.012 55.0225 44.2132 54.9379 43.49 54.6301C42.4623 54.2024 41.6143 53.4321 41.09 52.4501C40.8205 51.9567 40.6827 51.4022 40.69 50.8401V33.4401H33.05L33.02 39.1401V50.9101C33.27 52.5901 33.75 54.1501 34.45 55.5701C35.15 56.9901 36.04 58.2201 37.08 59.2501C38.0988 60.2607 39.2956 61.0743 40.61 61.6501C41.93 62.2301 43.34 62.5201 44.82 62.5201C46.72 62.5201 48.42 62.2201 49.87 61.6601C51.1849 61.1364 52.3448 60.2863 53.24 59.1901C54.0653 60.2696 55.1531 61.12 56.4 61.6601C57.76 62.2301 59.2 62.5201 60.68 62.5201C62.13 62.5201 63.54 62.2201 64.85 61.6501C66.15 61.0901 67.33 60.3001 68.35 59.3301C70.4694 57.3239 71.8742 54.6794 72.35 51.8001L72.36 51.7601V33.4401H64.81ZM84.42 62.5201H76.84V33.4401H84.42V62.5201ZM80.63 30.5801C80.0062 30.5794 79.3887 30.4559 78.8127 30.2166C78.2366 29.9773 77.7133 29.6268 77.2727 29.1853C76.3829 28.2936 75.8837 27.0849 75.885 25.8251C75.8863 24.5653 76.3881 23.3576 77.2798 22.4678C78.1715 21.5779 79.3802 21.0788 80.64 21.0801C81.8998 21.0814 83.1074 21.5831 83.9973 22.4749C84.8872 23.3666 85.3863 24.5753 85.385 25.8351C85.3837 27.0949 84.882 28.3025 83.9902 29.1924C83.0985 30.0822 81.8898 30.5814 80.63 30.5801ZM28.03 42.1001C27.1135 39.9055 25.6698 37.9709 23.827 36.4677C21.9841 34.9644 19.7988 33.9389 17.4649 33.482C15.131 33.0251 12.7204 33.1509 10.4467 33.8483C8.17296 34.5457 6.10638 35.7931 4.43001 37.4801C3.11201 38.8087 2.05984 40.3768 1.33001 42.1001C0.564872 43.8851 0.173495 45.808 0.180012 47.7501C0.171989 51.5704 1.67715 55.2384 4.36632 57.9519C7.05548 60.6655 10.7098 62.2036 14.53 62.2301H29.18V47.7501C29.18 45.7701 28.8 43.8701 28.04 42.1001H28.03ZM21.58 54.6301H14.7C13.7946 54.641 12.8964 54.4685 12.0595 54.123C11.2225 53.7776 10.4642 53.2664 9.83001 52.6201C8.86245 51.6439 8.20557 50.4032 7.94219 49.0542C7.6788 47.7052 7.82071 46.3085 8.35001 45.0401C9.05191 43.383 10.3667 42.061 12.02 41.3501C12.8675 40.9915 13.7798 40.8111 14.7 40.8201C15.6061 40.8105 16.5047 40.9846 17.3417 41.3317C18.1787 41.6789 18.9367 42.192 19.57 42.8401C20.7451 44.03 21.4547 45.6017 21.57 47.2701V47.3201C21.5862 47.6065 21.5862 47.8936 21.57 48.1801V54.6301H21.58ZM115.88 42.3501C114.777 39.718 112.921 37.4705 110.545 35.8899C108.169 34.3093 105.379 33.466 102.525 33.466C99.6712 33.466 96.8811 34.3093 94.505 35.8899C92.1289 37.4705 90.2729 39.718 89.17 42.3501C88.4057 44.1319 88.0143 46.0513 88.02 47.9901C88.0146 51.8096 89.5206 55.4761 92.2092 58.1891C94.8978 60.902 98.5506 62.441 102.37 62.4701V62.4801H117.02V47.9801C117.02 46.0001 116.64 44.1001 115.88 42.3401V42.3501ZM109.42 54.8801H102.54C101.635 54.8915 100.736 54.7193 99.8992 54.3739C99.0621 54.0284 98.3038 53.5168 97.67 52.8701C96.7025 51.8939 96.0456 50.6532 95.7822 49.3042C95.5188 47.9552 95.6607 46.5585 96.19 45.2901C96.7206 44.0425 97.6044 42.9774 98.7326 42.2258C99.8609 41.4742 101.184 41.069 102.54 41.0601C103.446 41.0505 104.345 41.2246 105.182 41.5717C106.019 41.9189 106.777 42.432 107.41 43.0801C108.587 44.2725 109.297 45.8482 109.41 47.5201H109.42V47.5601C109.438 47.8465 109.438 48.1337 109.42 48.4201V54.8801Z" fill="white"></path></g><defs><clipPath id="clip0_55_149"><rect width="180" height="80" fill="white"></rect></clipPath></defs></svg> 