<?xml version="1.0" encoding="UTF-8"?> <svg xmlns="http://www.w3.org/2000/svg" width="80" height="81" viewBox="0 0 80 81" fill="none"><path d="M74.2749 21.5408H78.0999V25.3408H74.2749V21.5408Z" fill="#FFFFFF"></path><path d="M70.4751 25.3408H74.2751V29.1658H70.4751V25.3408Z" fill="#FFFFFF"></path><path d="M70.4751 17.7408H74.2751V21.5408H70.4751V17.7408Z" fill="#FFFFFF"></path><path d="M66.6748 21.5408H70.4748V25.3408H66.6748V21.5408Z" fill="#FFFFFF"></path><path d="M66.6748 71.0659V67.2409H70.4748V63.4409H66.6748V59.6409H62.8498V63.4409H59.0498V67.2409H62.8498V71.0659H66.6748Z" fill="#FFFFFF"></path><path d="M62.8499 32.9658H66.6749V40.5908H62.8499V32.9658Z" fill="#FFFFFF"></path><path d="M59.0498 40.5908H62.8498V44.3908H59.0498V40.5908Z" fill="#FFFFFF"></path><path d="M59.0498 10.1158H62.8498V13.9158H59.0498V10.1158Z" fill="#FFFFFF"></path><path d="M55.2249 44.3909H59.0499V48.2159H55.2249V44.3909Z" fill="#FFFFFF"></path><path d="M55.2249 13.9158H59.0499V17.7408H55.2249V13.9158Z" fill="#FFFFFF"></path><path d="M51.425 48.2158H55.225V52.0158H51.425V48.2158Z" fill="#FFFFFF"></path><path d="M51.425 17.7408H55.225V21.5408H51.425V17.7408Z" fill="#FFFFFF"></path><path d="M47.625 52.0159H51.425V55.8159H47.625V52.0159Z" fill="#FFFFFF"></path><path d="M47.625 21.5408H51.425V25.3408H47.625V21.5408Z" fill="#FFFFFF"></path><path d="M43.8 74.8658H47.625V78.6908H43.8V74.8658Z" fill="#FFFFFF"></path><path d="M43.8 55.8158H47.625V59.6408H43.8V55.8158Z" fill="#FFFFFF"></path><path d="M43.8 25.3408V29.1658H40V32.9658H62.85V29.1658H47.625V25.3408H43.8Z" fill="#FFFFFF"></path><path d="M40 59.6409H43.8V63.4409H40V59.6409Z" fill="#FFFFFF"></path><path d="M62.85 6.29084V10.1158H66.675V2.49084H36.2V6.29084H62.85Z" fill="#FFFFFF"></path><path d="M36.2 63.4409H40V67.2409H36.2V63.4409Z" fill="#FFFFFF"></path><path d="M32.375 67.2408H36.2V71.0658H32.375V67.2408Z" fill="#FFFFFF"></path><path d="M32.375 6.29089H36.2V10.1159H32.375V6.29089Z" fill="#FFFFFF"></path><path d="M28.575 71.0659H32.3749V74.8659H28.575V71.0659Z" fill="#FFFFFF"></path><path d="M32.3749 40.5908H9.5249V44.3908H28.5749V52.0158H32.3749V40.5908Z" fill="#FFFFFF"></path><path d="M28.575 10.1158H32.3749V13.9158H28.575V10.1158Z" fill="#FFFFFF"></path><path d="M24.75 74.8658H28.575V78.6908H24.75V74.8658Z" fill="#FFFFFF"></path><path d="M24.75 52.0159H28.575V63.4409H24.75V52.0159Z" fill="#FFFFFF"></path><path d="M24.75 13.9158H28.575V17.7408H24.75V13.9158Z" fill="#FFFFFF"></path><path d="M20.95 63.4409H24.75V74.8659H20.95V63.4409Z" fill="#FFFFFF"></path><path d="M20.95 17.7408H24.75V21.5408H20.95V17.7408Z" fill="#FFFFFF"></path><path d="M17.1499 21.5408H20.9499V25.3408H17.1499V21.5408Z" fill="#FFFFFF"></path><path d="M13.325 25.3408H17.15V29.1658H13.325V25.3408Z" fill="#FFFFFF"></path><path d="M9.5249 55.8158H13.3249V59.6408H9.5249V55.8158Z" fill="#FFFFFF"></path><path d="M9.5249 29.1659H13.3249V32.9659H9.5249V29.1659Z" fill="#FFFFFF"></path><path d="M9.52485 2.49084V6.29085H5.72485V10.1158H9.52485V13.9158H13.3249V10.1158H17.1499V6.29085H13.3249V2.49084H9.52485Z" fill="#FFFFFF"></path><path d="M5.72485 59.6409H9.52485V63.4409H5.72485V59.6409Z" fill="#FFFFFF"></path><path d="M5.72485 52.0159H9.52485V55.8159H5.72485V52.0159Z" fill="#FFFFFF"></path><path d="M5.72485 32.9658H9.52485V40.5908H5.72485V32.9658Z" fill="#FFFFFF"></path><path d="M1.8999 55.8158H5.7249V59.6408H1.8999V55.8158Z" fill="#FFFFFF"></path></svg> 