<?xml version="1.0" encoding="UTF-8"?> <svg xmlns="http://www.w3.org/2000/svg" width="80" height="81" viewBox="0 0 80 81" fill="none"><g clip-path="url(#clip0_2147_46)"><path d="M45.6999 8.21587V4.39087H41.8999V8.21587H38.0999V4.39087H34.2749V8.21587H-0.00012207V12.0159H3.79988V15.8409H7.62488V53.9159H11.4249V15.8409H68.5749V53.9159H72.3749V15.8409H76.1749V12.0159H79.9999V8.21587H45.6999Z" fill="#D0FE5E"></path><path d="M64.7499 53.9158H68.5749V57.7408H64.7499V53.9158Z" fill="#D0FE5E"></path><path d="M15.225 57.7407V61.5407H38.1V72.9657H41.9V61.5407H64.75V57.7407H15.225Z" fill="#D0FE5E"></path><path d="M22.8499 46.3159V42.4909H26.6499V38.6909H22.8499V19.6409H19.0499V50.1159H60.9499V46.3159H22.8499Z" fill="#D0FE5E"></path><path d="M53.325 23.4409H57.15V27.2659H53.325V23.4409Z" fill="#D0FE5E"></path><path d="M49.5249 27.2659H53.3249V31.0659H49.5249V27.2659Z" fill="#D0FE5E"></path><path d="M45.7 31.0658H49.525V34.8908H45.7V31.0658Z" fill="#D0FE5E"></path><path d="M41.8999 72.9658H45.6999V76.7908H41.8999V72.9658Z" fill="#D0FE5E"></path><path d="M41.8999 34.8909H45.6999V38.6909H41.8999V34.8909Z" fill="#D0FE5E"></path><path d="M38.0999 76.7908H41.8999V80.5908H38.0999V76.7908Z" fill="#D0FE5E"></path><path d="M38.0999 38.6908H41.8999V42.4908H38.0999V38.6908Z" fill="#D0FE5E"></path><path d="M38.0999 0.59082H41.8999V4.39082H38.0999V0.59082Z" fill="#D0FE5E"></path><path d="M34.2749 72.9658H38.0999V76.7908H34.2749V72.9658Z" fill="#D0FE5E"></path><path d="M34.2749 34.8909H38.0999V38.6909H34.2749V34.8909Z" fill="#D0FE5E"></path><path d="M30.4749 31.0658H34.2749V34.8908H30.4749V31.0658Z" fill="#D0FE5E"></path><path d="M26.6499 34.8909H30.4749V38.6909H26.6499V34.8909Z" fill="#D0FE5E"></path><path d="M11.4249 53.9158H15.2249V57.7408H11.4249V53.9158Z" fill="#D0FE5E"></path></g><defs><clipPath id="clip0_2147_46"><rect width="80" height="80" fill="white" transform="translate(0 0.59082)"></rect></clipPath></defs></svg> 