<?xml version="1.0" encoding="UTF-8"?> <svg xmlns="http://www.w3.org/2000/svg" width="154" height="51" viewBox="0 0 154 51" fill="none"><rect x="1" y="1" width="49" height="49" rx="16.3333" fill="#0AFD0A"></rect><path d="M16.858 13.4902H10.6079V19.733H16.858V13.4902Z" fill="#1F0038"></path><path d="M29.3381 13.4902H23.0887V19.733H29.3381V25.9758H23.0887V19.733H16.8386V25.9758V32.2186V38.4614H23.0887V32.2186H29.3381H35.5882V25.9758V19.733V13.4902H29.3381Z" fill="#1F0038"></path><path d="M61.451 37V11.8011H71.8675C78.1098 11.8011 81.7863 14.9413 81.7863 20.5709C81.7863 26.0473 78.4928 29.1876 72.442 29.1876H66.0465V37H61.451ZM66.0465 25.9324H72.1739C75.5057 25.9324 77.4205 24.2473 77.4205 20.8007C77.4205 17.4689 75.3908 15.6307 71.7144 15.6307H66.0465V25.9324ZM84.7279 15.8605V11.6479H89.132V15.8605H84.7279ZM84.7662 37V18.0816H89.0554V37H84.7662ZM91.445 37L98.6064 27.311L91.7514 18.0816H97.1895L101.862 24.8984L106.381 18.0816H111.244L104.313 27.311L111.589 37H106.151L101.249 29.9152L96.5384 37H91.445ZM113.9 15.8605V11.6479H118.304V15.8605H113.9ZM113.939 37V18.0816H118.228V37H113.939ZM130.383 37.2298C125.213 37.2298 123.183 34.4341 123.183 30.2599V21.5666H120.196V18.0816H122.609C123.337 18.0816 123.605 17.6987 123.719 16.6264L123.911 13.7925H127.473V18.0816H133.983V21.5666H127.473V30.0301C127.473 32.481 128.392 33.7065 130.996 33.7065C132.068 33.7065 133.294 33.515 133.83 33.3619V36.7702C133.255 36.9617 131.953 37.2298 130.383 37.2298ZM153.812 26.8515V28.3833H139.643C139.872 32.0215 141.902 33.9746 145.119 33.9746C147.876 33.9746 149.753 32.7491 149.944 30.5279H153.812C153.659 34.7405 150.212 37.3064 145.042 37.3064C139.068 37.3064 135.315 33.6299 135.315 27.694C135.315 21.5666 139.068 17.7753 145.042 17.7753C150.404 17.7753 153.812 20.9539 153.812 26.8515ZM149.944 25.7792V25.5111C149.944 22.6772 148.183 21.107 145.081 21.107C142.132 21.107 140.255 22.6389 139.758 25.7792H149.944Z" fill="white"></path></svg> 