<?xml version="1.0" encoding="UTF-8"?> <svg xmlns="http://www.w3.org/2000/svg" viewBox="0 0 24 24" id="Business-Product-Startup-1--Streamline-Pixel.svg" height="24" width="24"><g><path d="M21.7125 21.7125H24v1.1475h-2.2874999999999996Z" fill="#FFFFFF" stroke-width="1"></path><path d="M20.572499999999998 22.86h1.1400000000000001V24h-1.1400000000000001Z" fill="#FFFFFF" stroke-width="1"></path><path d="m20.572499999999998 14.857499999999998 -1.1475 0 0 1.1400000000000001 1.1475 0 0 1.1475 1.1400000000000001 0 0 -5.715 -1.1400000000000001 0 0 3.4275z" fill="#FFFFFF" stroke-width="1"></path><path d="M18.285 21.7125h2.2874999999999996v1.1475h-2.2874999999999996Z" fill="#FFFFFF" stroke-width="1"></path><path d="M19.424999999999997 10.290000000000001h1.1475v1.1400000000000001H19.424999999999997Z" fill="#FFFFFF" stroke-width="1"></path><path d="M15.997499999999999 20.572499999999998h2.2874999999999996v1.1400000000000001h-2.2874999999999996Z" fill="#FFFFFF" stroke-width="1"></path><path d="m17.145 15.997499999999999 1.1400000000000001 0 0 -1.1400000000000001 1.1400000000000001 0 0 -1.1400000000000001 -1.1400000000000001 0 0 -3.4275 1.1400000000000001 0 0 -1.1475 -1.1400000000000001 0 0 -3.4275 -1.1400000000000001 0 0 10.2825z" fill="#FFFFFF" stroke-width="1"></path><path d="M14.857499999999998 22.86h1.1400000000000001V24h-1.1400000000000001Z" fill="#FFFFFF" stroke-width="1"></path><path d="M14.857499999999998 13.7175h1.1400000000000001v1.1400000000000001h-1.1400000000000001Z" fill="#FFFFFF" stroke-width="1"></path><path d="M14.857499999999998 11.43h1.1400000000000001v1.1400000000000001h-1.1400000000000001Z" fill="#FFFFFF" stroke-width="1"></path><path d="M13.71 20.572499999999998h1.1475v2.2874999999999996h-1.1475Z" fill="#FFFFFF" stroke-width="1"></path><path d="M10.2825 18.285h4.574999999999999v1.1475h-4.574999999999999Z" fill="#FFFFFF" stroke-width="1"></path><path d="M13.71 1.1400000000000001h1.1475v1.1475h-1.1475Z" fill="#FFFFFF" stroke-width="1"></path><path d="M11.43 0h2.2800000000000002v1.1400000000000001h-2.2800000000000002Z" fill="#FFFFFF" stroke-width="1"></path><path d="m14.857499999999998 6.855 -1.1475 0 0 -1.1400000000000001 -2.2800000000000002 0 0 1.1400000000000001 1.1400000000000001 0 0 1.1475 -1.1400000000000001 0 0 -1.1475 -1.1475 0 0 2.2874999999999996 1.1475 0 0 1.1475 2.2800000000000002 0 0 -1.1475 1.1475 0 0 -2.2874999999999996z" fill="#FFFFFF" stroke-width="1"></path><path d="M10.2825 20.572499999999998h1.1475v2.2874999999999996h-1.1475Z" fill="#FFFFFF" stroke-width="1"></path><path d="m7.995 17.145 1.1475 0 0 1.1400000000000001 1.1400000000000001 0 0 -1.1400000000000001 4.574999999999999 0 0 1.1400000000000001 1.1400000000000001 0 0 -1.1400000000000001 1.1475 0 0 -1.1475 -9.149999999999999 0 0 1.1475z" fill="#FFFFFF" stroke-width="1"></path><path d="M10.2825 1.1400000000000001h1.1475v1.1475h-1.1475Z" fill="#FFFFFF" stroke-width="1"></path><path d="M9.1425 22.86h1.1400000000000001V24h-1.1400000000000001Z" fill="#FFFFFF" stroke-width="1"></path><path d="M6.855 20.572499999999998h2.2874999999999996v1.1400000000000001H6.855Z" fill="#FFFFFF" stroke-width="1"></path><path d="m10.2825 3.4275 0 -1.1400000000000001 -1.1400000000000001 0 0 1.1400000000000001 -1.1475 0 0 2.2874999999999996 1.1475 0 0 -1.1400000000000001 6.855 0 0 1.1400000000000001 1.1475 0 0 -2.2874999999999996 -1.1475 0 0 -1.1400000000000001 -1.1400000000000001 0 0 1.1400000000000001 -4.574999999999999 0z" fill="#FFFFFF" stroke-width="1"></path><path d="m7.995 5.715 -1.1400000000000001 0 0 3.4275 -1.1400000000000001 0 0 1.1475 1.1400000000000001 0 0 3.4275 -1.1400000000000001 0 0 1.1400000000000001 1.1400000000000001 0 0 1.1400000000000001 1.1400000000000001 0 0 -10.2825z" fill="#FFFFFF" stroke-width="1"></path><path d="M4.5675 21.7125h2.2874999999999996v1.1475H4.5675Z" fill="#FFFFFF" stroke-width="1"></path><path d="M4.5675 10.290000000000001h1.1475v1.1400000000000001H4.5675Z" fill="#FFFFFF" stroke-width="1"></path><path d="M3.4275 22.86h1.1400000000000001V24H3.4275Z" fill="#FFFFFF" stroke-width="1"></path><path d="m4.5675 11.43 -1.1400000000000001 0 0 5.715 1.1400000000000001 0 0 -1.1475 1.1475 0 0 -1.1400000000000001 -1.1475 0 0 -3.4275z" fill="#FFFFFF" stroke-width="1"></path><path d="M1.1400000000000001 21.7125h2.2874999999999996v1.1475H1.1400000000000001Z" fill="#FFFFFF" stroke-width="1"></path><path d="M0 22.86h1.1400000000000001V24H0Z" fill="#FFFFFF" stroke-width="1"></path></g></svg> 